<mxfile host="app.diagrams.net" modified="2022-12-12T06:29:21.420Z" agent="5.0 (Windows NT 10.0; Win64; x64) AppleWebKit/537.36 (KHTML, like Gecko) Chrome/107.0.0.0 Safari/537.36" etag="6C_-PgxLaFz_rK0nHpVn" version="20.6.0" type="github">
  <diagram name="Page-1" id="b5b7bab2-c9e2-2cf4-8b2a-24fd1a2a6d21">
    <mxGraphModel dx="1609" dy="436" grid="1" gridSize="10" guides="1" tooltips="1" connect="1" arrows="1" fold="1" page="1" pageScale="1" pageWidth="827" pageHeight="1169" background="none" math="0" shadow="0">
      <root>
        <mxCell id="0" />
        <mxCell id="1" parent="0" />
        <mxCell id="zQ9i3q9YDAYz2BxAbwR4-2" value="callback(pre)/new-tenant&lt;br&gt;MQ&lt;br&gt;10.10.71.111:5677" style="strokeWidth=2;html=1;shape=mxgraph.flowchart.direct_data;whiteSpace=wrap;fillColor=#f9f7ed;strokeColor=#36393d;" vertex="1" parent="1">
          <mxGeometry x="-390" y="360" width="210" height="70" as="geometry" />
        </mxCell>
        <mxCell id="zQ9i3q9YDAYz2BxAbwR4-3" value="cw1&lt;br&gt;MQ&lt;br&gt;10.10.71.111:5678" style="strokeWidth=2;html=1;shape=mxgraph.flowchart.direct_data;whiteSpace=wrap;fillColor=#f9f7ed;strokeColor=#36393d;" vertex="1" parent="1">
          <mxGeometry y="360" width="181" height="70" as="geometry" />
        </mxCell>
        <mxCell id="zQ9i3q9YDAYz2BxAbwR4-4" value="cw2&lt;br&gt;MQ&lt;br&gt;10.10.71.111:5679" style="strokeWidth=2;html=1;shape=mxgraph.flowchart.direct_data;whiteSpace=wrap;fillColor=#f9f7ed;strokeColor=#36393d;" vertex="1" parent="1">
          <mxGeometry x="248" y="360" width="181" height="70" as="geometry" />
        </mxCell>
        <mxCell id="zQ9i3q9YDAYz2BxAbwR4-16" style="edgeStyle=orthogonalEdgeStyle;curved=1;rounded=0;orthogonalLoop=1;jettySize=auto;html=1;exitX=0.5;exitY=1;exitDx=0;exitDy=0;entryX=0.5;entryY=0;entryDx=0;entryDy=0;entryPerimeter=0;" edge="1" parent="1" source="zQ9i3q9YDAYz2BxAbwR4-10" target="zQ9i3q9YDAYz2BxAbwR4-2">
          <mxGeometry relative="1" as="geometry" />
        </mxCell>
        <mxCell id="zQ9i3q9YDAYz2BxAbwR4-19" style="edgeStyle=orthogonalEdgeStyle;curved=1;rounded=0;orthogonalLoop=1;jettySize=auto;html=1;exitX=0.5;exitY=1;exitDx=0;exitDy=0;entryX=0.5;entryY=0;entryDx=0;entryDy=0;entryPerimeter=0;" edge="1" parent="1" source="zQ9i3q9YDAYz2BxAbwR4-11" target="zQ9i3q9YDAYz2BxAbwR4-2">
          <mxGeometry relative="1" as="geometry" />
        </mxCell>
        <mxCell id="zQ9i3q9YDAYz2BxAbwR4-28" value="" style="group" vertex="1" connectable="0" parent="1">
          <mxGeometry x="-540" y="130" width="240" height="130" as="geometry" />
        </mxCell>
        <mxCell id="zQ9i3q9YDAYz2BxAbwR4-10" value="" style="rounded=1;whiteSpace=wrap;html=1;absoluteArcSize=1;arcSize=14;strokeWidth=2;shadow=0;dashed=1;dashPattern=1 1;gradientColor=none;" vertex="1" parent="zQ9i3q9YDAYz2BxAbwR4-28">
          <mxGeometry width="200" height="130" as="geometry" />
        </mxCell>
        <mxCell id="zQ9i3q9YDAYz2BxAbwR4-5" value="callback" style="rounded=1;whiteSpace=wrap;html=1;strokeWidth=2;fillWeight=4;hachureGap=8;hachureAngle=45;fillColor=#cce5ff;sketch=1;strokeColor=#36393d;" vertex="1" parent="zQ9i3q9YDAYz2BxAbwR4-28">
          <mxGeometry x="109" y="20" width="72" height="60" as="geometry" />
        </mxCell>
        <mxCell id="zQ9i3q9YDAYz2BxAbwR4-6" value="pre-callback" style="rounded=1;whiteSpace=wrap;html=1;strokeWidth=2;fillWeight=4;hachureGap=8;hachureAngle=45;fillColor=#cce5ff;sketch=1;strokeColor=#36393d;" vertex="1" parent="zQ9i3q9YDAYz2BxAbwR4-28">
          <mxGeometry x="14" y="20" width="76" height="60" as="geometry" />
        </mxCell>
        <mxCell id="zQ9i3q9YDAYz2BxAbwR4-25" value="CW All Tenant&amp;nbsp;" style="text;html=1;strokeColor=none;fillColor=default;align=center;verticalAlign=middle;whiteSpace=wrap;rounded=0;shadow=0;dashed=1;dashPattern=1 1;gradientColor=#FFE599;gradientDirection=radial;" vertex="1" parent="zQ9i3q9YDAYz2BxAbwR4-28">
          <mxGeometry x="42" y="90" width="120" height="30" as="geometry" />
        </mxCell>
        <mxCell id="zQ9i3q9YDAYz2BxAbwR4-29" value="" style="group;fillColor=default;gradientColor=#FFE599;gradientDirection=radial;" vertex="1" connectable="0" parent="1">
          <mxGeometry x="-278" y="128.5" width="220" height="131.5" as="geometry" />
        </mxCell>
        <mxCell id="zQ9i3q9YDAYz2BxAbwR4-11" value="" style="rounded=1;whiteSpace=wrap;html=1;absoluteArcSize=1;arcSize=14;strokeWidth=2;shadow=0;dashed=1;dashPattern=1 1;gradientColor=none;" vertex="1" parent="zQ9i3q9YDAYz2BxAbwR4-29">
          <mxGeometry width="220" height="131.5" as="geometry" />
        </mxCell>
        <mxCell id="zQ9i3q9YDAYz2BxAbwR4-7" value="client-new-fast" style="rounded=1;whiteSpace=wrap;html=1;strokeWidth=2;fillWeight=4;hachureGap=8;hachureAngle=45;fillColor=#cdeb8b;sketch=1;strokeColor=#36393d;" vertex="1" parent="zQ9i3q9YDAYz2BxAbwR4-29">
          <mxGeometry x="11" y="20.5" width="79" height="60" as="geometry" />
        </mxCell>
        <mxCell id="zQ9i3q9YDAYz2BxAbwR4-8" value="client-new-slow" style="rounded=1;whiteSpace=wrap;html=1;strokeWidth=2;fillWeight=4;hachureGap=8;hachureAngle=45;fillColor=#cdeb8b;sketch=1;strokeColor=#36393d;" vertex="1" parent="zQ9i3q9YDAYz2BxAbwR4-29">
          <mxGeometry x="105" y="20.5" width="84" height="60" as="geometry" />
        </mxCell>
        <mxCell id="zQ9i3q9YDAYz2BxAbwR4-27" value="CW New Tenant&amp;nbsp;" style="text;html=1;strokeColor=none;fillColor=default;align=center;verticalAlign=middle;whiteSpace=wrap;rounded=0;shadow=0;dashed=1;dashPattern=1 1;gradientColor=#FFE599;gradientDirection=radial;" vertex="1" parent="zQ9i3q9YDAYz2BxAbwR4-29">
          <mxGeometry x="48" y="91.5" width="120" height="30" as="geometry" />
        </mxCell>
        <mxCell id="zQ9i3q9YDAYz2BxAbwR4-33" value="" style="group" vertex="1" connectable="0" parent="1">
          <mxGeometry x="10" y="130" width="210" height="130" as="geometry" />
        </mxCell>
        <mxCell id="zQ9i3q9YDAYz2BxAbwR4-21" value="" style="rounded=1;whiteSpace=wrap;html=1;absoluteArcSize=1;arcSize=14;strokeWidth=2;shadow=0;dashed=1;dashPattern=1 1;gradientColor=none;movable=1;resizable=1;rotatable=1;deletable=1;editable=1;connectable=1;" vertex="1" parent="zQ9i3q9YDAYz2BxAbwR4-33">
          <mxGeometry width="210" height="130" as="geometry" />
        </mxCell>
        <mxCell id="zQ9i3q9YDAYz2BxAbwR4-22" value="client-fast" style="rounded=1;whiteSpace=wrap;html=1;strokeWidth=2;fillWeight=4;hachureGap=8;hachureAngle=45;fillColor=#cdeb8b;sketch=1;strokeColor=#36393d;movable=1;resizable=1;rotatable=1;deletable=1;editable=1;connectable=1;" vertex="1" parent="zQ9i3q9YDAYz2BxAbwR4-33">
          <mxGeometry x="11" y="20.5" width="90" height="60" as="geometry" />
        </mxCell>
        <mxCell id="zQ9i3q9YDAYz2BxAbwR4-30" value="client-slow" style="rounded=1;whiteSpace=wrap;html=1;strokeWidth=2;fillWeight=4;hachureGap=8;hachureAngle=45;fillColor=#cdeb8b;sketch=1;strokeColor=#36393d;movable=1;resizable=1;rotatable=1;deletable=1;editable=1;connectable=1;" vertex="1" parent="zQ9i3q9YDAYz2BxAbwR4-33">
          <mxGeometry x="110" y="20.5" width="90" height="60" as="geometry" />
        </mxCell>
        <mxCell id="zQ9i3q9YDAYz2BxAbwR4-31" value="CW Group1 Tenant&lt;br&gt;Count: 3&amp;nbsp;" style="text;html=1;strokeColor=none;fillColor=default;align=center;verticalAlign=middle;whiteSpace=wrap;rounded=0;shadow=0;dashed=1;dashPattern=1 1;gradientColor=#FFE599;gradientDirection=radial;" vertex="1" parent="zQ9i3q9YDAYz2BxAbwR4-33">
          <mxGeometry x="45" y="90" width="120" height="30" as="geometry" />
        </mxCell>
        <mxCell id="zQ9i3q9YDAYz2BxAbwR4-34" value="" style="group" vertex="1" connectable="0" parent="1">
          <mxGeometry x="240" y="130" width="210" height="130" as="geometry" />
        </mxCell>
        <mxCell id="zQ9i3q9YDAYz2BxAbwR4-35" value="" style="rounded=1;whiteSpace=wrap;html=1;absoluteArcSize=1;arcSize=14;strokeWidth=2;shadow=0;dashed=1;dashPattern=1 1;gradientColor=none;movable=1;resizable=1;rotatable=1;deletable=1;editable=1;connectable=1;" vertex="1" parent="zQ9i3q9YDAYz2BxAbwR4-34">
          <mxGeometry width="210" height="130" as="geometry" />
        </mxCell>
        <mxCell id="zQ9i3q9YDAYz2BxAbwR4-36" value="client-fast" style="rounded=1;whiteSpace=wrap;html=1;strokeWidth=2;fillWeight=4;hachureGap=8;hachureAngle=45;fillColor=#cdeb8b;sketch=1;strokeColor=#36393d;movable=1;resizable=1;rotatable=1;deletable=1;editable=1;connectable=1;" vertex="1" parent="zQ9i3q9YDAYz2BxAbwR4-34">
          <mxGeometry x="11" y="20.5" width="90" height="60" as="geometry" />
        </mxCell>
        <mxCell id="zQ9i3q9YDAYz2BxAbwR4-37" value="client-slow" style="rounded=1;whiteSpace=wrap;html=1;strokeWidth=2;fillWeight=4;hachureGap=8;hachureAngle=45;fillColor=#cdeb8b;sketch=1;strokeColor=#36393d;movable=1;resizable=1;rotatable=1;deletable=1;editable=1;connectable=1;" vertex="1" parent="zQ9i3q9YDAYz2BxAbwR4-34">
          <mxGeometry x="110" y="20.5" width="90" height="60" as="geometry" />
        </mxCell>
        <mxCell id="zQ9i3q9YDAYz2BxAbwR4-38" value="CW Group2 Tenant&lt;br&gt;Count: 3&amp;nbsp;" style="text;html=1;strokeColor=none;fillColor=default;align=center;verticalAlign=middle;whiteSpace=wrap;rounded=0;shadow=0;dashed=1;dashPattern=1 1;gradientColor=#FFE599;gradientDirection=radial;" vertex="1" parent="zQ9i3q9YDAYz2BxAbwR4-34">
          <mxGeometry x="45" y="90" width="120" height="30" as="geometry" />
        </mxCell>
      </root>
    </mxGraphModel>
  </diagram>
</mxfile>
